<?xml version="1.0" encoding="UTF-8" ?>
<!DOCTYPE svg PUBLIC "-//W3C//DTD SVG 1.1//EN" "http://www.w3.org/Graphics/SVG/1.1/DTD/svg11.dtd">
<svg width="250pt" height="250pt" viewBox="0 0 250 250" version="1.1" xmlns="http://www.w3.org/2000/svg">
<path fill="#ffffff" d=" M 0.00 0.00 L 250.00 0.00 L 250.00 250.00 L 0.00 250.00 L 0.00 0.00 Z" />
<path fill="#e9e7d9" d=" M 127.02 47.21 C 149.30 45.12 171.68 47.49 194.00 46.75 C 200.50 46.84 207.06 46.21 213.51 47.35 C 205.14 53.01 197.50 59.67 188.98 65.12 C 178.27 72.67 167.96 80.79 157.22 88.30 C 146.42 95.98 136.27 104.58 124.96 111.53 C 106.77 99.00 89.18 85.63 71.17 72.83 C 63.04 66.24 53.91 61.01 45.90 54.27 C 55.97 49.86 67.28 50.68 78.01 50.15 C 84.30 49.30 90.66 49.23 97.00 49.42 C 99.82 49.32 102.95 49.86 105.42 48.13 C 101.28 47.51 97.09 47.73 92.93 47.55 C 104.27 46.89 115.66 47.78 127.02 47.21 Z" />
<path fill="#d4463b" d=" M 19.57 60.94 C 19.88 53.43 26.64 47.22 33.99 46.71 C 38.46 48.24 42.14 51.48 45.90 54.27 C 53.91 61.01 63.04 66.24 71.17 72.83 C 89.18 85.63 106.77 99.00 124.96 111.53 C 136.27 104.58 146.42 95.98 157.22 88.30 C 167.96 80.79 178.27 72.67 188.98 65.12 C 197.50 59.67 205.14 53.01 213.51 47.35 C 221.70 44.58 230.23 52.84 230.47 60.94 C 230.63 101.97 230.45 143.00 230.56 184.03 C 231.01 189.68 227.36 195.03 222.53 197.68 C 217.83 200.39 212.22 199.16 207.07 199.31 C 206.39 161.85 207.22 124.37 206.68 86.91 C 183.50 102.89 160.82 119.60 137.82 135.83 C 133.66 138.88 129.54 141.99 125.02 144.49 C 123.58 143.69 122.14 142.90 120.74 142.03 C 94.92 123.63 69.40 104.82 43.45 86.59 C 42.24 92.66 42.78 98.86 42.73 105.00 C 42.73 131.33 42.77 157.67 42.77 184.00 C 42.76 187.49 43.08 190.97 43.11 194.47 C 43.01 195.97 42.86 197.48 42.72 198.98 C 36.54 199.73 29.37 200.13 24.51 195.49 C 20.96 192.41 18.97 187.71 19.50 183.01 C 19.60 142.32 19.50 101.63 19.57 60.94 Z" />
<path fill="#e9e7d9" d=" M 42.73 105.00 C 42.78 98.86 42.24 92.66 43.45 86.59 C 69.40 104.82 94.92 123.63 120.74 142.03 C 117.56 145.53 113.70 148.29 109.71 150.78 C 92.44 161.74 75.58 173.32 58.50 184.56 C 53.38 187.88 48.53 191.63 43.11 194.47 C 43.08 190.97 42.76 187.49 42.77 184.00 C 42.77 157.67 42.73 131.33 42.73 105.00 Z" />
<path fill="#abaaa1" d=" M 137.82 135.83 C 160.82 119.60 183.50 102.89 206.68 86.91 C 207.22 124.37 206.39 161.85 207.07 199.31 L 206.37 198.89 C 191.95 190.54 178.62 180.49 164.71 171.34 C 151.40 162.64 138.44 153.39 124.94 144.99 C 120.45 147.34 116.28 150.22 112.13 153.11 C 93.72 165.31 75.57 177.91 57.10 190.03 C 53.82 192.16 50.71 194.53 47.47 196.74 C 47.09 196.91 46.31 197.26 45.92 197.44 C 45.07 197.82 44.22 198.22 43.39 198.64 L 42.72 198.98 C 42.86 197.48 43.01 195.97 43.11 194.47 C 48.53 191.63 53.38 187.88 58.50 184.56 C 75.58 173.32 92.44 161.74 109.71 150.78 C 113.70 148.29 117.56 145.53 120.74 142.03 C 122.14 142.90 123.58 143.69 125.02 144.49 C 129.54 141.99 133.66 138.88 137.82 135.83 Z" />
<path fill="#e9e7d9" d=" M 112.13 153.11 C 116.28 150.22 120.45 147.34 124.94 144.99 C 138.44 153.39 151.40 162.64 164.71 171.34 C 178.62 180.49 191.95 190.54 206.37 198.89 C 199.61 199.73 192.79 199.25 186.00 199.33 C 144.34 199.31 102.67 199.37 61.00 199.27 C 55.13 199.23 49.21 199.75 43.39 198.64 C 44.22 198.22 45.07 197.82 45.92 197.44 C 71.94 198.01 97.98 197.54 124.00 197.69 C 149.73 197.55 175.47 197.93 201.20 197.47 C 158.80 197.15 116.40 197.39 74.00 197.30 C 65.16 197.25 56.29 197.64 47.47 196.74 C 50.71 194.53 53.82 192.16 57.10 190.03 C 75.57 177.91 93.72 165.31 112.13 153.11 Z" />
<path fill="#ffffff" d=" M 45.92 197.44 C 46.31 197.26 47.09 196.91 47.47 196.74 C 56.29 197.64 65.16 197.25 74.00 197.30 C 116.40 197.39 158.80 197.15 201.20 197.47 C 175.47 197.93 149.73 197.55 124.00 197.69 C 97.98 197.54 71.94 198.01 45.92 197.44 Z" />
</svg>
