<?xml version="1.0" encoding="UTF-8" ?>
<!DOCTYPE svg PUBLIC "-//W3C//DTD SVG 1.1//EN" "http://www.w3.org/Graphics/SVG/1.1/DTD/svg11.dtd">
<svg width="250pt" height="250pt" viewBox="0 0 250 250" version="1.1" xmlns="http://www.w3.org/2000/svg">
<path fill="#ffffff" d=" M 0.00 0.00 L 250.00 0.00 L 250.00 250.00 L 0.00 250.00 L 0.00 0.00 Z" />
<path fill="#d0f1ff" d=" M 31.79 46.46 C 36.71 45.39 40.17 49.69 43.90 52.07 C 51.00 57.71 58.80 62.43 65.60 68.45 C 78.97 78.83 92.94 88.40 106.53 98.49 C 112.62 102.92 118.51 107.64 124.99 111.50 C 130.06 108.53 134.73 104.95 139.41 101.42 C 162.78 84.46 186.02 67.32 209.40 50.40 C 212.92 47.99 217.25 47.40 221.39 46.90 C 226.79 48.61 231.31 54.11 231.02 59.94 C 230.98 99.62 231.00 139.31 231.00 179.00 C 230.94 182.90 231.39 186.85 230.71 190.72 C 228.70 194.47 225.42 197.71 221.58 199.55 C 215.83 200.70 209.89 200.01 204.11 199.39 C 204.25 199.04 204.51 198.34 204.65 197.99 C 205.53 195.76 206.56 193.50 206.41 191.04 C 206.23 164.36 206.36 137.68 206.31 111.00 C 206.26 103.23 206.55 95.45 206.05 87.69 C 199.77 91.33 194.18 95.99 188.23 100.13 C 173.94 110.19 159.80 120.46 145.54 130.56 C 139.64 134.71 134.07 139.40 127.71 142.85 C 126.47 143.38 125.21 143.86 123.94 144.33 C 123.48 144.00 122.56 143.34 122.09 143.01 C 100.83 127.54 79.37 112.34 58.02 96.97 C 53.61 93.64 48.99 90.58 44.05 88.09 C 44.23 112.40 43.49 136.70 43.83 161.01 C 42.96 172.63 43.05 184.29 43.34 195.93 L 43.37 196.75 C 43.43 197.39 43.54 198.66 43.60 199.30 L 43.69 200.12 C 38.40 199.72 32.85 200.87 27.74 199.25 C 23.59 196.48 18.42 192.66 18.94 187.05 C 19.08 147.70 18.96 108.35 18.99 69.01 C 19.12 64.49 18.47 59.87 19.54 55.43 C 21.71 50.61 26.25 46.48 31.79 46.46 Z" />
<path fill="#e9e7d9" d=" M 207.03 46.73 C 211.82 46.87 216.81 44.69 221.39 46.90 C 217.25 47.40 212.92 47.99 209.40 50.40 C 186.02 67.32 162.78 84.46 139.41 101.42 C 134.73 104.95 130.06 108.53 124.99 111.50 C 118.51 107.64 112.62 102.92 106.53 98.49 C 92.94 88.40 78.97 78.83 65.60 68.45 C 67.48 68.33 69.86 68.95 71.18 67.20 C 73.74 63.41 73.33 58.10 76.71 54.78 C 84.80 53.56 92.65 50.78 100.90 50.68 C 110.24 49.73 119.63 49.96 129.00 49.78 C 156.01 48.24 183.10 49.18 210.13 48.46 C 194.29 47.90 178.39 48.86 162.58 47.70 C 164.30 47.11 166.13 46.82 167.95 46.82 C 180.98 46.88 194.00 46.70 207.03 46.73 Z" />
<path fill="#e9e7d9" d=" M 44.05 88.09 C 48.99 90.58 53.61 93.64 58.02 96.97 C 79.37 112.34 100.83 127.54 122.09 143.01 C 116.91 145.22 112.60 148.93 107.90 151.96 C 90.02 163.30 72.61 175.36 54.88 186.94 C 50.79 189.60 46.59 192.24 43.34 195.93 C 43.05 184.29 42.96 172.63 43.83 161.01 C 43.49 136.70 44.23 112.40 44.05 88.09 Z" />
<path fill="#abaaa1" d=" M 188.23 100.13 C 194.18 95.99 199.77 91.33 206.05 87.69 C 206.55 95.45 206.26 103.23 206.31 111.00 C 206.36 137.68 206.23 164.36 206.41 191.04 C 206.56 193.50 205.53 195.76 204.65 197.99 C 193.24 191.02 182.32 183.31 171.30 175.75 C 156.35 165.73 141.37 155.76 126.43 145.74 C 126.86 144.78 127.29 143.82 127.71 142.85 C 134.07 139.40 139.64 134.71 145.54 130.56 C 159.80 120.46 173.94 110.19 188.23 100.13 Z" />
<path fill="#abaaa1" d=" M 107.90 151.96 C 112.60 148.93 116.91 145.22 122.09 143.01 C 122.56 143.34 123.48 144.00 123.94 144.33 C 122.16 146.10 120.28 147.80 118.18 149.19 C 100.21 160.75 82.79 173.14 64.92 184.86 C 59.09 188.88 52.86 192.36 47.55 197.08 L 46.60 197.03 C 45.52 196.94 44.45 196.84 43.37 196.75 L 43.34 195.93 C 46.59 192.24 50.79 189.60 54.88 186.94 C 72.61 175.36 90.02 163.30 107.90 151.96 Z" />
<path fill="#e9e7d9" d=" M 123.94 144.33 C 125.21 143.86 126.47 143.38 127.71 142.85 C 127.29 143.82 126.86 144.78 126.43 145.74 C 141.37 155.76 156.35 165.73 171.30 175.75 C 182.32 183.31 193.24 191.02 204.65 197.99 C 204.51 198.34 204.25 199.04 204.11 199.39 C 150.61 199.29 97.10 199.33 43.60 199.30 C 43.54 198.66 43.43 197.39 43.37 196.75 C 44.45 196.84 45.52 196.94 46.60 197.03 C 51.37 197.63 56.19 197.87 61.00 197.74 C 105.71 197.55 150.43 197.89 195.14 197.53 C 189.77 197.20 184.38 197.28 179.00 197.34 C 150.00 197.31 121.00 197.31 92.00 197.31 C 77.18 197.20 62.36 197.55 47.55 197.08 C 52.86 192.36 59.09 188.88 64.92 184.86 C 82.79 173.14 100.21 160.75 118.18 149.19 C 120.28 147.80 122.16 146.10 123.94 144.33 Z" />
<path fill="#ffffff" d=" M 46.60 197.03 L 47.55 197.08 C 62.36 197.55 77.18 197.20 92.00 197.31 C 121.00 197.31 150.00 197.31 179.00 197.34 C 184.38 197.28 189.77 197.20 195.14 197.53 C 150.43 197.89 105.71 197.55 61.00 197.74 C 56.19 197.87 51.37 197.63 46.60 197.03 Z" />
</svg>
