<?xml version="1.0" encoding="UTF-8" ?>
<!DOCTYPE svg PUBLIC "-//W3C//DTD SVG 1.1//EN" "http://www.w3.org/Graphics/SVG/1.1/DTD/svg11.dtd">
<svg width="250pt" height="250pt" viewBox="0 0 250 250" version="1.1" xmlns="http://www.w3.org/2000/svg">
<path fill="#fffefe" d=" M 0.00 0.00 L 250.00 0.00 L 250.00 250.00 L 0.00 250.00 L 0.00 0.00 Z" />
<path fill="#daecee" d=" M 19.01 58.93 C 19.10 49.55 31.76 42.33 39.36 48.54 C 45.69 53.26 51.92 58.11 58.36 62.69 C 65.08 68.20 72.64 72.52 80.09 76.95 C 83.41 74.59 84.37 70.46 86.02 66.96 C 87.49 63.79 88.29 60.38 89.38 57.07 C 89.83 54.98 92.15 54.50 93.89 53.97 C 101.76 51.99 109.77 50.24 117.94 50.19 C 129.30 50.05 140.63 49.05 152.00 49.16 C 168.67 49.08 185.34 48.79 202.02 48.86 C 204.74 48.85 207.46 48.70 210.18 48.46 C 195.38 47.70 180.53 48.58 165.74 47.76 C 167.29 46.69 169.18 46.92 170.96 46.87 C 181.98 46.97 192.99 46.81 204.00 46.86 C 209.27 46.98 214.52 45.72 219.78 46.27 C 224.54 47.27 228.54 51.07 230.42 55.48 C 231.62 60.21 230.88 65.17 231.00 70.00 C 231.00 106.33 230.96 142.67 231.02 179.00 C 230.90 183.11 231.64 187.40 230.33 191.37 C 227.69 195.67 223.47 200.02 218.07 200.07 C 211.04 200.38 204.04 199.23 197.01 199.31 C 148.67 199.44 100.33 199.16 51.98 199.18 C 44.16 199.10 36.21 201.19 28.47 199.47 C 23.78 197.13 18.67 192.82 18.95 187.06 C 19.09 144.35 18.96 101.63 19.01 58.93 Z" />
<path fill="#000000" d=" M 110.00 66.00 C 118.67 66.01 127.33 65.99 136.00 66.00 C 135.96 79.36 136.11 92.73 135.95 106.09 C 134.91 116.07 133.51 126.02 132.29 135.99 C 126.08 135.99 119.87 136.03 113.66 135.95 C 112.45 122.97 109.50 110.10 110.00 97.00 C 110.00 86.67 110.00 76.34 110.00 66.00 Z" />
<path fill="#abaaa0" d=" M 191.12 98.12 C 196.07 94.66 200.73 90.77 206.01 87.81 C 206.15 90.20 206.26 92.60 206.27 95.00 C 206.19 122.67 206.26 150.34 206.24 178.00 C 206.19 184.49 206.52 190.99 205.99 197.47 C 201.00 196.97 197.30 193.36 193.27 190.78 C 174.18 178.09 155.56 164.66 136.02 152.67 C 135.99 150.46 135.97 148.25 135.95 146.03 C 129.56 145.97 123.18 146.05 116.80 145.97 C 120.01 141.93 125.62 145.37 129.31 142.29 C 149.96 127.64 170.43 112.72 191.12 98.12 Z" />
<path fill="#000000" d=" M 109.98 146.00 C 112.25 145.98 114.52 145.95 116.80 145.97 C 123.18 146.05 129.56 145.97 135.95 146.03 C 135.97 148.25 135.99 150.46 136.02 152.67 C 136.08 159.12 136.06 165.57 136.02 172.02 C 127.34 172.07 118.66 172.06 109.98 172.02 C 109.95 166.27 109.95 160.51 110.00 154.76 C 110.00 153.48 110.00 152.21 109.99 150.93 C 109.97 149.29 109.97 147.64 109.98 146.00 Z" />
<path fill="#abaaa0" d=" M 95.70 159.77 C 100.38 156.70 104.97 153.45 109.99 150.93 C 110.00 152.21 110.00 153.48 110.00 154.76 C 92.43 166.18 75.29 178.25 57.73 189.70 C 54.21 191.90 51.00 194.57 47.51 196.82 C 47.03 196.84 46.08 196.87 45.61 196.88 C 45.15 196.89 44.24 196.90 43.79 196.91 C 45.68 191.61 51.17 189.46 55.47 186.53 C 68.90 177.64 82.28 168.68 95.70 159.77 Z" />
<path fill="#fffefe" d=" M 45.61 196.88 C 46.08 196.87 47.03 196.84 47.51 196.82 C 54.34 196.99 61.17 197.35 68.00 197.18 C 109.00 197.21 150.00 197.36 191.01 197.32 C 194.27 197.31 197.57 196.83 200.82 197.36 C 198.14 198.78 194.90 197.47 192.00 197.72 C 147.67 197.59 103.33 197.81 59.00 197.86 C 54.53 197.85 49.90 198.49 45.61 196.88 Z" />
</svg>
