<?xml version="1.0" encoding="UTF-8" ?>
<!DOCTYPE svg PUBLIC "-//W3C//DTD SVG 1.1//EN" "http://www.w3.org/Graphics/SVG/1.1/DTD/svg11.dtd">
<svg width="250pt" height="250pt" viewBox="0 0 250 250" version="1.1" xmlns="http://www.w3.org/2000/svg">
<path fill="#ffffff" d=" M 0.00 0.00 L 250.00 0.00 L 250.00 250.00 L 0.00 250.00 L 0.00 0.00 Z" />
<path fill="#1672d9" d=" M 24.88 48.75 C 28.01 45.98 32.41 46.98 36.22 46.68 C 38.56 48.88 41.37 50.46 43.97 52.32 C 61.19 65.06 78.71 77.39 95.94 90.12 C 105.58 97.29 115.64 103.92 125.00 111.44 C 137.38 101.66 150.52 92.87 163.10 83.34 C 178.73 72.00 194.26 60.52 209.93 49.24 C 211.24 48.42 212.58 47.63 213.90 46.81 C 217.47 46.89 221.35 46.41 224.57 48.30 C 228.02 51.19 231.40 55.11 230.94 59.94 C 231.09 103.89 230.96 147.85 231.00 191.81 C 230.62 191.88 229.86 192.03 229.48 192.10 C 228.42 194.14 227.01 196.14 224.73 196.92 C 225.20 197.64 225.65 198.37 226.09 199.11 C 225.01 198.78 223.97 198.37 222.97 197.87 C 222.27 198.98 222.23 200.08 223.11 201.11 C 217.88 198.49 211.65 201.01 206.07 199.70 L 205.97 199.18 C 205.98 198.84 206.01 198.17 206.03 197.84 C 206.52 160.98 206.13 124.11 206.23 87.24 C 182.96 104.34 159.25 120.83 135.84 137.74 C 132.38 140.27 128.96 142.87 125.32 145.14 C 125.09 145.10 124.64 145.02 124.42 144.98 C 123.24 144.29 122.09 143.55 120.96 142.79 C 96.48 125.43 72.15 107.88 47.79 90.36 C 46.39 89.34 45.03 88.27 43.67 87.21 C 43.61 112.98 43.52 138.76 43.77 164.53 C 42.93 176.33 43.72 188.17 43.47 200.00 C 38.00 200.53 32.11 198.84 26.92 200.98 C 28.57 199.67 27.28 198.58 26.14 197.55 C 26.05 197.89 25.87 198.57 25.78 198.92 L 23.66 198.42 C 24.27 197.99 24.88 197.55 25.48 197.12 C 23.13 196.32 21.60 194.17 20.50 192.05 C 20.12 192.03 19.37 191.97 19.00 191.95 C 19.01 147.61 18.99 103.26 19.01 58.92 C 18.64 54.64 22.05 51.45 24.88 48.75 Z" />
<path fill="#e9e7d9" d=" M 47.98 50.63 C 60.05 50.48 72.17 51.19 84.19 49.77 C 109.47 49.51 134.75 49.48 160.04 49.20 C 173.33 48.45 186.65 48.83 199.96 48.57 C 203.30 48.47 206.63 48.70 209.93 49.24 C 194.26 60.52 178.73 72.00 163.10 83.34 C 150.52 92.87 137.38 101.66 125.00 111.44 C 115.64 103.92 105.58 97.29 95.94 90.12 C 78.71 77.39 61.19 65.06 43.97 52.32 C 45.15 51.40 46.38 50.38 47.98 50.63 Z" />
<path fill="#ffffff" d=" M 43.67 87.21 C 45.03 88.27 46.39 89.34 47.79 90.36 C 44.80 95.03 45.75 100.71 45.64 105.95 C 45.51 127.90 45.36 149.84 45.23 171.79 C 44.91 179.06 44.15 186.30 44.05 193.59 C 43.37 183.90 44.82 174.20 43.77 164.53 C 43.52 138.76 43.61 112.98 43.67 87.21 Z" />
<path fill="#abaaa1" d=" M 135.84 137.74 C 159.25 120.83 182.96 104.34 206.23 87.24 C 206.13 124.11 206.52 160.98 206.03 197.84 C 202.66 196.76 199.41 195.33 196.52 193.28 C 172.96 176.98 149.15 161.03 125.32 145.14 C 128.96 142.87 132.38 140.27 135.84 137.74 Z" />
<path fill="#e9e7d9" d=" M 47.79 90.36 C 72.15 107.88 96.48 125.43 120.96 142.79 C 117.30 145.97 113.29 148.72 109.20 151.32 C 89.95 164.05 70.78 176.91 51.50 189.59 C 48.96 191.28 46.50 193.07 44.05 194.88 L 44.05 193.59 C 44.15 186.30 44.91 179.06 45.23 171.79 C 45.36 149.84 45.51 127.90 45.64 105.95 C 45.75 100.71 44.80 95.03 47.79 90.36 Z" />
<path fill="#abaaa1" d=" M 120.96 142.79 C 122.09 143.55 123.24 144.29 124.42 144.98 C 100.68 160.18 77.57 176.35 54.00 191.82 C 51.59 193.38 49.27 195.08 47.00 196.84 L 46.27 196.80 C 45.81 196.77 44.90 196.71 44.44 196.67 C 44.26 197.29 43.89 198.53 43.71 199.15 C 43.65 199.36 43.53 199.78 43.47 200.00 C 43.72 188.17 42.93 176.33 43.77 164.53 C 44.82 174.20 43.37 183.90 44.05 193.59 L 44.05 194.88 C 46.50 193.07 48.96 191.28 51.50 189.59 C 70.78 176.91 89.95 164.05 109.20 151.32 C 113.29 148.72 117.30 145.97 120.96 142.79 Z" />
<path fill="#e9e7d9" d=" M 124.42 144.98 C 124.64 145.02 125.09 145.10 125.32 145.14 C 149.15 161.03 172.96 176.98 196.52 193.28 C 199.41 195.33 202.66 196.76 206.03 197.84 C 206.01 198.17 205.98 198.84 205.97 199.18 C 204.66 199.40 203.35 199.53 202.04 199.57 C 155.37 199.43 108.69 199.44 62.02 199.39 C 55.92 199.35 49.80 199.65 43.71 199.15 C 43.89 198.53 44.26 197.29 44.44 196.67 C 44.90 196.71 45.81 196.77 46.27 196.80 C 49.13 197.28 52.01 197.85 54.92 197.90 C 89.61 197.77 124.29 197.84 158.98 197.74 C 172.98 198.27 186.99 197.62 201.00 197.50 C 187.00 197.38 173.00 196.73 159.00 197.26 C 130.68 197.28 102.35 197.12 74.02 197.17 C 65.01 197.07 56.00 197.44 47.00 196.84 C 49.27 195.08 51.59 193.38 54.00 191.82 C 77.57 176.35 100.68 160.18 124.42 144.98 Z" />
<path fill="#ffffff" d=" M 46.27 196.80 L 47.00 196.84 C 56.00 197.44 65.01 197.07 74.02 197.17 C 102.35 197.12 130.68 197.28 159.00 197.26 C 173.00 196.73 187.00 197.38 201.00 197.50 C 186.99 197.62 172.98 198.27 158.98 197.74 C 124.29 197.84 89.61 197.77 54.92 197.90 C 52.01 197.85 49.13 197.28 46.27 196.80 Z" />
</svg>
